<?xml version="1.0" encoding="UTF-8"?>
<svg width="18px" height="18px" viewBox="0 0 18 18" version="1.1" xmlns="http://www.w3.org/2000/svg" xmlns:xlink="http://www.w3.org/1999/xlink">
    <!-- Generator: sketchtool 41 (35326) - http://www.bohemiancoding.com/sketch -->
    <title>FB874A33-0BD5-4EF8-9E35-5E4CBA2BDEE6</title>
    <desc>Created with sketchtool.</desc>
    <defs></defs>
    <g id="Page-1" stroke="none" stroke-width="1" fill="none" fill-rule="evenodd">
        <g id="laptop-nav-view" transform="translate(-1023.000000, -381.000000)" fill="#2196F3">
            <g id="Group" transform="translate(991.000000, 82.000000)">
                <path d="M35.6,306.8 C37,309.6 39.4,311.9 42.2,313.4 L44.4,311.2 C44.7,310.9 45.1,310.8 45.4,311 C46.5,311.4 47.7,311.6 49,311.6 C49.6,311.6 50,312 50,312.6 L50,316 C50,316.6 49.6,317 49,317 C39.6,317 32,309.4 32,300 C32,299.4 32.4,299 33,299 L36.5,299 C37.1,299 37.5,299.4 37.5,300 C37.5,301.2 37.7,302.4 38.1,303.6 C38.2,303.9 38.1,304.3 37.9,304.6 L35.6,306.8 L35.6,306.8 Z" id="call"></path>
            </g>
        </g>
    </g>
</svg>