<?xml version="1.0" encoding="UTF-8"?>
<svg width="20px" height="20px" viewBox="0 0 20 20" version="1.1" xmlns="http://www.w3.org/2000/svg" xmlns:xlink="http://www.w3.org/1999/xlink">
    <!-- Generator: sketchtool 41 (35326) - http://www.bohemiancoding.com/sketch -->
    <title>3E93A9A0-15DC-430E-906B-3077CAF99FF1</title>
    <desc>Created with sketchtool.</desc>
    <defs></defs>
    <g id="Page-1" stroke="none" stroke-width="1" fill="none" fill-rule="evenodd">
        <g id="laptop-nav-view" transform="translate(-24.000000, -486.000000)" fill="#7D7D7D">
            <g id="navigation-drawer">
                <g id="list" transform="translate(24.000000, 340.000000)">
                    <g id="list-item" transform="translate(0.000000, 146.000000)">
                        <g id="forum">
                            <path d="M19,4 L17,4 L17,13 L4,13 L4,15 C4,15.6 4.4,16 5,16 L16,16 L20,20 L20,5 C20,4.4 19.6,4 19,4 L19,4 Z M15,10 L15,1 C15,0.4 14.6,0 14,0 L1,0 C0.4,0 0,0.4 0,1 L0,15 L4,11 L14,11 C14.6,11 15,10.6 15,10 L15,10 Z" id="Shape"></path>
                        </g>
                    </g>
                </g>
            </g>
        </g>
    </g>
</svg>