<?xml version="1.0" encoding="UTF-8"?>
<svg width="17px" height="21px" viewBox="0 0 17 21" version="1.1" xmlns="http://www.w3.org/2000/svg" xmlns:xlink="http://www.w3.org/1999/xlink">
    <!-- Generator: sketchtool 41 (35326) - http://www.bohemiancoding.com/sketch -->
    <title>D33CB0F0-CC13-4EC2-BDD9-8C3318E43505</title>
    <desc>Created with sketchtool.</desc>
    <defs></defs>
    <g id="Page-1" stroke="none" stroke-width="1" fill="none" fill-rule="evenodd">
        <g id="laptop-nav-view" transform="translate(-1384.000000, -378.000000)" fill="#757575">
            <g id="Group" transform="translate(991.000000, 82.000000)">
                <path d="M401.5,296 C396.8,296 393,299.8 393,304.5 C393,309.2 396.8,313 401.5,313 L402,313 L402,316.5 C406.9,314.2 410,309 410,304.5 C410,299.8 406.2,296 401.5,296 L401.5,296 Z M401,305 L400,307 L398.5,307 L399.5,305 L398,305 L398,302 L401,302 L401,305 L401,305 Z M405,305 L404,307 L402.5,307 L403.5,305 L402,305 L402,302 L405,302 L405,305 L405,305 Z" id="hangout"></path>
            </g>
        </g>
    </g>
</svg>