<?xml version="1.0" encoding="UTF-8"?>
<svg width="4px" height="16px" viewBox="0 0 4 16" version="1.1" xmlns="http://www.w3.org/2000/svg" xmlns:xlink="http://www.w3.org/1999/xlink">
    <!-- Generator: sketchtool 41 (35326) - http://www.bohemiancoding.com/sketch -->
    <title>DE4835B3-3AD5-4FCB-93BC-67D2836EEA27</title>
    <desc>Created with sketchtool.</desc>
    <defs></defs>
    <g id="Page-1" stroke="none" stroke-width="1" fill="none" fill-rule="evenodd">
        <g id="laptop-nav-view" transform="translate(-1395.000000, -24.000000)" fill="#FFFFFF">
            <g id="toolbar-copy" transform="translate(256.000000, 0.000000)">
                <path d="M1141,40 C1142.10457,40 1143,39.1045695 1143,38 C1143,36.8954305 1142.10457,36 1141,36 C1139.89543,36 1139,36.8954305 1139,38 C1139,39.1045695 1139.89543,40 1141,40 Z M1141,34 C1142.10457,34 1143,33.1045695 1143,32 C1143,30.8954305 1142.10457,30 1141,30 C1139.89543,30 1139,30.8954305 1139,32 C1139,33.1045695 1139.89543,34 1141,34 Z M1141,28 C1142.10457,28 1143,27.1045695 1143,26 C1143,24.8954305 1142.10457,24 1141,24 C1139.89543,24 1139,24.8954305 1139,26 C1139,27.1045695 1139.89543,28 1141,28 Z" id="more-vert"></path>
            </g>
        </g>
    </g>
</svg>