<?xml version="1.0" encoding="UTF-8"?>
<svg width="14px" height="20px" viewBox="0 0 14 20" version="1.1" xmlns="http://www.w3.org/2000/svg" xmlns:xlink="http://www.w3.org/1999/xlink">
    <!-- Generator: sketchtool 41 (35326) - http://www.bohemiancoding.com/sketch -->
    <title>FABF8D76-948F-4837-B546-BF3C72F9835A</title>
    <desc>Created with sketchtool.</desc>
    <defs></defs>
    <g id="Page-1" stroke="none" stroke-width="1" fill="none" fill-rule="evenodd">
        <g id="laptop-nav-view" transform="translate(-1025.000000, -696.000000)" fill="#2196F3">
            <g id="Group" transform="translate(991.000000, 82.000000)">
                <path d="M41,614 C37.1,614 34,617.1 34,621 C34,626.2 41,634 41,634 C41,634 48,626.2 48,621 C48,617.1 44.9,614 41,614 L41,614 Z M41,623.5 C39.6,623.5 38.5,622.4 38.5,621 C38.5,619.6 39.6,618.5 41,618.5 C42.4,618.5 43.5,619.6 43.5,621 C43.5,622.4 42.4,623.5 41,623.5 L41,623.5 Z" id="place"></path>
            </g>
        </g>
    </g>
</svg>