<?xml version="1.0" encoding="UTF-8"?>
<svg width="17px" height="16px" viewBox="0 0 17 16" version="1.1" xmlns="http://www.w3.org/2000/svg" xmlns:xlink="http://www.w3.org/1999/xlink">
    <!-- Generator: sketchtool 41 (35326) - http://www.bohemiancoding.com/sketch -->
    <title>9D36776D-7547-4203-8FAF-FA7649768B85</title>
    <desc>Created with sketchtool.</desc>
    <defs></defs>
    <g id="Page-1" stroke="none" stroke-width="1" fill="none" fill-rule="evenodd">
        <g id="laptop-nav-view" transform="translate(-1333.000000, -24.000000)" fill="#FFFFFF">
            <g id="toolbar-copy" transform="translate(256.000000, 0.000000)">
                <path d="M1091.33728,31.108 L1093.06784,31.108 L1093.06784,24.3333333 L1090.69024,26.8046667 C1089.28032,25.0846667 1087.07232,24 1084.73504,24 C1080.50016,24 1077,27.5886667 1077,32 C1077,36.4113333 1080.41696,40 1084.65184,40 C1087.6016,40 1090.31264,38.206 1091.57856,35.4293333 L1089.83776,34.5713333 C1088.88736,36.6546667 1086.83936,38.0006667 1084.62688,38.0006667 C1081.45056,38.0006667 1078.8656,35.3086667 1078.8656,32.0006667 C1078.8656,28.6926667 1081.44864,26.0006667 1084.62496,26.0006667 C1086.46624,26.0006667 1088.10336,26.6213333 1089.15872,28.0253333 L1086.22496,31.108 L1090.37408,31.108 L1091.33728,31.108 Z" id="refresh"></path>
            </g>
        </g>
    </g>
</svg>